<?xml version="1.0" encoding="UTF-8"?>
<!DOCTYPE svg PUBLIC "-//W3C//DTD SVG 1.1//EN" "http://www.w3.org/Graphics/SVG/1.1/DTD/svg11.dtd">
<!-- Creator: CorelDRAW 2020 (64-Bit) -->
<svg xmlns="http://www.w3.org/2000/svg" xml:space="preserve" width="29px" height="29px" version="1.1" style="shape-rendering:geometricPrecision; text-rendering:geometricPrecision; image-rendering:optimizeQuality; fill-rule:evenodd; clip-rule:evenodd"
viewBox="0 0 8.09 8.09"
 xmlns:xlink="http://www.w3.org/1999/xlink"
 xmlns:xodm="http://www.corel.com/coreldraw/odm/2003">
 <defs>
  <style type="text/css">
   <![CDATA[
    .str0 {stroke:#2E2E2D;stroke-width:0.55;stroke-miterlimit:22.9256;stroke-opacity:0.949020}
    .fil1 {fill:#2E2E2D;fill-rule:nonzero}
    .fil0 {fill:#FEFEFE;fill-opacity:0.949020}
   ]]>
  </style>
 </defs>
 <g id="Слой_x0020_1">
  <metadata id="CorelCorpID_0Corel-Layer"/>
  <path class="fil0 str0" d="M4.04 0.28c2.08,0 3.77,1.68 3.77,3.76 0,2.08 -1.69,3.77 -3.77,3.77 -2.08,0 -3.76,-1.69 -3.76,-3.77 0,-2.08 1.68,-3.76 3.76,-3.76z"/>
  <path class="fil1" d="M3.74 5.54l0 -1.85 -0.32 0 0 -0.28 0.32 0 0 -0.23c0,-0.15 0.01,-0.25 0.04,-0.32 0.03,-0.09 0.09,-0.17 0.18,-0.23 0.09,-0.06 0.21,-0.09 0.37,-0.09 0.1,0 0.21,0.02 0.34,0.04l-0.06 0.32c-0.07,-0.02 -0.14,-0.02 -0.21,-0.02 -0.11,0 -0.19,0.02 -0.23,0.07 -0.05,0.04 -0.07,0.13 -0.07,0.26l0 0.2 0.42 0 0 0.28 -0.42 0 0 1.85 -0.36 0z"/>
 </g>
</svg>
