<?xml version="1.0" encoding="UTF-8"?>
<!DOCTYPE svg PUBLIC "-//W3C//DTD SVG 1.1//EN" "http://www.w3.org/Graphics/SVG/1.1/DTD/svg11.dtd">
<!-- Creator: CorelDRAW 2020 (64-Bit) -->
<svg xmlns="http://www.w3.org/2000/svg" xml:space="preserve" width="29px" height="29px" version="1.1" style="shape-rendering:geometricPrecision; text-rendering:geometricPrecision; image-rendering:optimizeQuality; fill-rule:evenodd; clip-rule:evenodd"
viewBox="0 0 27.04 27.04"
 xmlns:xlink="http://www.w3.org/1999/xlink"
 xmlns:xodm="http://www.corel.com/coreldraw/odm/2003">
 <defs>
  <style type="text/css">
   <![CDATA[
    .str0 {stroke:#2E2E2D;stroke-width:1.85;stroke-miterlimit:22.9256;stroke-opacity:0.949020}
    .fil1 {fill:#2E2E2D;fill-rule:nonzero}
    .fil0 {fill:#FEFEFE;fill-opacity:0.949020}
   ]]>
  </style>
 </defs>
 <g id="Слой_x0020_1">
  <metadata id="CorelCorpID_0Corel-Layer"/>
  <path class="fil0 str0" d="M13.52 0.92c6.96,0 12.6,5.64 12.6,12.6 0,6.96 -5.64,12.6 -12.6,12.6 -6.96,0 -12.6,-5.64 -12.6,-12.6 0,-6.96 5.64,-12.6 12.6,-12.6z"/>
  <path class="fil1" d="M9.15 9.93l0 -1.38 1.21 0 0 1.38 -1.21 0zm0 8.48l0 -7.15 1.21 0 0 7.15 -1.21 0zm3.06 0l0 -7.15 1.09 0 0 1.02c0.52,-0.78 1.28,-1.17 2.27,-1.17 0.43,0 0.82,0.08 1.18,0.23 0.37,0.16 0.64,0.36 0.82,0.61 0.17,0.25 0.3,0.55 0.37,0.9 0.05,0.22 0.07,0.61 0.07,1.17l0 4.39 -1.21 0 0 -4.34c0,-0.49 -0.05,-0.86 -0.14,-1.11 -0.1,-0.24 -0.27,-0.44 -0.5,-0.58 -0.24,-0.15 -0.53,-0.22 -0.85,-0.22 -0.51,0 -0.95,0.16 -1.33,0.49 -0.37,0.33 -0.56,0.95 -0.56,1.86l0 3.9 -1.21 0z"/>
 </g>
</svg>
