<?xml version="1.0" encoding="UTF-8"?>
<!DOCTYPE svg PUBLIC "-//W3C//DTD SVG 1.1//EN" "http://www.w3.org/Graphics/SVG/1.1/DTD/svg11.dtd">
<!-- Creator: CorelDRAW 2020 (64-Bit) -->
<svg xmlns="http://www.w3.org/2000/svg" xml:space="preserve" width="29px" height="29px" version="1.1" style="shape-rendering:geometricPrecision; text-rendering:geometricPrecision; image-rendering:optimizeQuality; fill-rule:evenodd; clip-rule:evenodd"
viewBox="0 0 13.31 13.31"
 xmlns:xlink="http://www.w3.org/1999/xlink"
 xmlns:xodm="http://www.corel.com/coreldraw/odm/2003">
 <defs>
  <style type="text/css">
   <![CDATA[
    .str0 {stroke:#2E2E2D;stroke-width:0.91;stroke-miterlimit:22.9256;stroke-opacity:0.949020}
    .fil0 {fill:#FEFEFE;fill-opacity:0.949020}
    .fil1 {fill:#232125;fill-rule:nonzero}
   ]]>
  </style>
 </defs>
 <g id="Слой_x0020_1">
  <metadata id="CorelCorpID_0Corel-Layer"/>
  <path class="fil0 str0" d="M6.66 0.45c3.42,0 6.2,2.78 6.2,6.21 0,3.42 -2.78,6.2 -6.2,6.2 -3.43,0 -6.21,-2.78 -6.21,-6.2 0,-3.43 2.78,-6.21 6.21,-6.21z"/>
  <path class="fil1" d="M4.65 9.09l-1.33 -3.53 0.64 0 0.75 2.11c0.08,0.23 0.16,0.47 0.23,0.71 0.05,-0.18 0.12,-0.41 0.22,-0.67l0.78 -2.15 0.62 0 -1.34 3.53 -0.57 0zm2.43 0l0 -4.86 0.6 0 0 2.77 1.41 -1.44 0.77 0 -1.34 1.31 1.47 2.22 -0.73 0 -1.17 -1.8 -0.41 0.4 0 1.4 -0.6 0z"/>
 </g>
</svg>
