<?xml version="1.0" encoding="UTF-8"?>
<!DOCTYPE svg PUBLIC "-//W3C//DTD SVG 1.1//EN" "http://www.w3.org/Graphics/SVG/1.1/DTD/svg11.dtd">
<!-- Creator: CorelDRAW 2020 (64-Bit) -->
<svg xmlns="http://www.w3.org/2000/svg" xml:space="preserve" width="29px" height="29px" version="1.1" style="shape-rendering:geometricPrecision; text-rendering:geometricPrecision; image-rendering:optimizeQuality; fill-rule:evenodd; clip-rule:evenodd"
viewBox="0 0 20.27 20.27"
 xmlns:xlink="http://www.w3.org/1999/xlink"
 xmlns:xodm="http://www.corel.com/coreldraw/odm/2003">
 <defs>
  <style type="text/css">
   <![CDATA[
    .str0 {stroke:#2E2E2D;stroke-width:1.38;stroke-miterlimit:22.9256;stroke-opacity:0.949020}
    .fil1 {fill:#2E2E2D;fill-rule:nonzero}
    .fil0 {fill:#FEFEFE;fill-opacity:0.949020}
   ]]>
  </style>
 </defs>
 <g id="Слой_x0020_1">
  <metadata id="CorelCorpID_0Corel-Layer"/>
  <path class="fil0 str0" d="M10.13 0.69c5.22,0 9.45,4.23 9.45,9.44 0,5.22 -4.23,9.45 -9.45,9.45 -5.21,0 -9.44,-4.23 -9.44,-9.45 0,-5.21 4.23,-9.44 9.44,-9.44z"/>
  <path class="fil1" d="M9.52 12.75l0.13 0.8c-0.26,0.06 -0.49,0.08 -0.69,0.08 -0.32,0 -0.58,-0.05 -0.76,-0.15 -0.18,-0.11 -0.31,-0.24 -0.38,-0.41 -0.08,-0.17 -0.11,-0.53 -0.11,-1.08l0 -3.09 -0.67 0 0 -0.7 0.67 0 0 -1.32 0.91 -0.55 0 1.87 0.9 0 0 0.7 -0.9 0 0 3.14c0,0.26 0.01,0.43 0.04,0.5 0.03,0.08 0.09,0.14 0.16,0.18 0.07,0.04 0.17,0.07 0.31,0.07 0.1,0 0.23,-0.01 0.39,-0.04zm0.73 1.26l0.88 0.12c0.04,0.27 0.14,0.47 0.31,0.6 0.23,0.16 0.53,0.25 0.92,0.25 0.42,0 0.75,-0.09 0.98,-0.25 0.23,-0.17 0.38,-0.41 0.46,-0.71 0.05,-0.18 0.07,-0.57 0.07,-1.16 -0.4,0.47 -0.89,0.7 -1.49,0.7 -0.73,0 -1.3,-0.26 -1.71,-0.8 -0.4,-0.53 -0.6,-1.16 -0.6,-1.9 0,-0.52 0.09,-0.99 0.28,-1.42 0.18,-0.43 0.45,-0.76 0.8,-1 0.35,-0.23 0.76,-0.35 1.24,-0.35 0.63,0 1.15,0.26 1.56,0.77l0 -0.66 0.84 0 0 4.63c0,0.84 -0.09,1.43 -0.26,1.77 -0.17,0.35 -0.44,0.63 -0.8,0.83 -0.37,0.2 -0.82,0.3 -1.36,0.3 -0.64,0 -1.15,-0.14 -1.55,-0.43 -0.39,-0.29 -0.58,-0.72 -0.57,-1.29zm0.75 -3.22c0,0.7 0.14,1.21 0.42,1.53 0.28,0.33 0.63,0.49 1.05,0.49 0.41,0 0.76,-0.16 1.05,-0.48 0.28,-0.32 0.42,-0.82 0.42,-1.51 0,-0.65 -0.15,-1.15 -0.44,-1.48 -0.29,-0.33 -0.64,-0.5 -1.05,-0.5 -0.4,0 -0.75,0.17 -1.03,0.49 -0.28,0.33 -0.42,0.82 -0.42,1.46z"/>
 </g>
</svg>
