<?xml version="1.0" encoding="UTF-8"?>
<!DOCTYPE svg PUBLIC "-//W3C//DTD SVG 1.1//EN" "http://www.w3.org/Graphics/SVG/1.1/DTD/svg11.dtd">
<!-- Creator: CorelDRAW 2020 (64-Bit) -->
<svg xmlns="http://www.w3.org/2000/svg" xml:space="preserve" width="29px" height="29px" version="1.1" style="shape-rendering:geometricPrecision; text-rendering:geometricPrecision; image-rendering:optimizeQuality; fill-rule:evenodd; clip-rule:evenodd"
viewBox="0 0 30.05 30.05"
 xmlns:xlink="http://www.w3.org/1999/xlink"
 xmlns:xodm="http://www.corel.com/coreldraw/odm/2003">
 <defs>
  <style type="text/css">
   <![CDATA[
    .str0 {stroke:#2E2E2D;stroke-width:2.05;stroke-miterlimit:22.9256;stroke-opacity:0.949020}
    .fil1 {fill:#2E2E2D;fill-rule:nonzero}
    .fil0 {fill:#FEFEFE;fill-opacity:0.949020}
   ]]>
  </style>
 </defs>
 <g id="Слой_x0020_1">
  <metadata id="CorelCorpID_0Corel-Layer"/>
  <path class="fil0 str0" d="M15.03 1.03c7.73,0 14,6.26 14,14 0,7.73 -6.27,14 -14,14 -7.74,0 -14,-6.27 -14,-14 0,-7.74 6.26,-14 14,-14z"/>
  <path class="fil1" d="M7.73 15.93c0,-1.46 0.41,-2.55 1.23,-3.26 0.68,-0.58 1.52,-0.88 2.5,-0.88 1.09,0 1.98,0.36 2.68,1.07 0.69,0.72 1.04,1.7 1.04,2.96 0,1.02 -0.16,1.82 -0.46,2.41 -0.31,0.58 -0.76,1.04 -1.34,1.36 -0.59,0.33 -1.23,0.49 -1.92,0.49 -1.11,0 -2.01,-0.36 -2.7,-1.07 -0.68,-0.71 -1.03,-1.74 -1.03,-3.08zm1.38 0.01c0,1.01 0.22,1.77 0.67,2.28 0.44,0.5 1,0.75 1.68,0.75 0.67,0 1.23,-0.25 1.67,-0.76 0.45,-0.5 0.67,-1.28 0.67,-2.32 0,-0.98 -0.23,-1.72 -0.67,-2.22 -0.45,-0.51 -1.01,-0.76 -1.67,-0.76 -0.68,0 -1.24,0.25 -1.68,0.75 -0.45,0.51 -0.67,1.26 -0.67,2.28zm7.65 3.97l0 -10.97 1.35 0 0 6.25 3.18 -3.23 1.74 0 -3.03 2.95 3.34 5 -1.66 0 -2.64 -4.06 -0.93 0.91 0 3.15 -1.35 0z"/>
 </g>
</svg>
